<svg xmlns="http://www.w3.org/2000/svg" viewBox="0 0 512 512" width="512" height="512">
  <rect width="512" height="512" rx="112" fill="#29B6D8"/>
  <g transform="translate(256 248) scale(3.4) translate(-50 -50)">
    <!-- propellers -->
    <ellipse cx="24" cy="34" rx="15" ry="4" fill="#ffffff"/>
    <ellipse cx="76" cy="34" rx="15" ry="4" fill="#ffffff"/>
    <circle cx="24" cy="34" r="4" fill="#16181d"/>
    <circle cx="76" cy="34" r="4" fill="#16181d"/>
    <!-- wings -->
    <path d="M50 50 L20 40 L30 50 L20 60 Z" fill="#16181d"/>
    <path d="M50 50 L80 40 L70 50 L80 60 Z" fill="#16181d"/>
    <!-- W body -->
    <path d="M38 44 L44 64 L50 50 L56 64 L62 44 L57 44 L53 56 L50 46 L47 56 L43 44 Z" fill="#16181d"/>
  </g>
  <text x="256" y="430" font-family="-apple-system,Segoe UI,Roboto,Arial,sans-serif" font-size="64" font-weight="800" fill="#ffffff" text-anchor="middle" letter-spacing="-1">GoWingo</text>
</svg>
